<svg width="16" height="16" viewBox="0 0 16 16" fill="none" xmlns="http://www.w3.org/2000/svg">
<g clip-path="url(#clip0_224_6729)">
<path d="M7.99992 4.66668C7.63325 4.66668 7.33325 4.96668 7.33325 5.33334V7.33334H5.33325C4.96659 7.33334 4.66659 7.63334 4.66659 8.00001C4.66659 8.36668 4.96659 8.66668 5.33325 8.66668H7.33325V10.6667C7.33325 11.0333 7.63325 11.3333 7.99992 11.3333C8.36659 11.3333 8.66659 11.0333 8.66659 10.6667V8.66668H10.6666C11.0333 8.66668 11.3333 8.36668 11.3333 8.00001C11.3333 7.63334 11.0333 7.33334 10.6666 7.33334H8.66659V5.33334C8.66659 4.96668 8.36659 4.66668 7.99992 4.66668ZM7.99992 1.33334C4.31992 1.33334 1.33325 4.32001 1.33325 8.00001C1.33325 11.68 4.31992 14.6667 7.99992 14.6667C11.6799 14.6667 14.6666 11.68 14.6666 8.00001C14.6666 4.32001 11.6799 1.33334 7.99992 1.33334ZM7.99992 13.3333C5.05992 13.3333 2.66659 10.94 2.66659 8.00001C2.66659 5.06001 5.05992 2.66668 7.99992 2.66668C10.9399 2.66668 13.3333 5.06001 13.3333 8.00001C13.3333 10.94 10.9399 13.3333 7.99992 13.3333Z" fill="#9873FF"/>
</g>
<defs>
<clipPath id="clip0_224_6729">
<rect width="16" height="16" fill="white"/>
</clipPath>
</defs>
</svg>
